control3min_grf.mot
version=1
nRows=30
nColumns 19
inDegrees=yes
endheader
time	1_ground_force_vx	1_ground_force_vy	1_ground_force_vz	1_ground_force_px	1_ground_force_py	1_ground_force_pz	1_ground_torque_x	1_ground_torque_y	1_ground_torque_z	2_ground_force_vx	2_ground_force_vy	2_ground_force_vz	2_ground_force_px	2_ground_force_py	2_ground_force_pz	2_ground_torque_x	2_ground_torque_y	2_ground_torque_z
            3.747500	          -22.079509	         1129.024317	         -126.943532	           -0.235624	            0.006178	           -0.394992	           -0.122729	            6.275670	           -0.705614	          -36.364420	         1054.276488	          118.000505	           -0.224214	            0.005750	           -0.718944	            0.145675	           -4.223395	           -0.472706
            3.748000	          -22.214605	         1123.794000	         -126.369484	           -0.235435	            0.006178	           -0.394905	           -0.124839	            6.315355	           -0.710155	          -36.022036	         1050.227961	          117.563565	           -0.223957	            0.005752	           -0.719113	            0.142532	           -4.155531	           -0.465174
            3.748500	          -22.533055	         1119.104217	         -125.746794	           -0.235115	            0.006177	           -0.394782	           -0.128050	            6.359590	           -0.714588	          -36.098514	         1045.440345	          117.405730	           -0.223731	            0.005752	           -0.719130	            0.139357	           -4.035893	           -0.453242
            3.749000	          -22.484552	         1113.873542	         -125.081497	           -0.234904	            0.006177	           -0.394704	           -0.127962	            6.339158	           -0.711850	          -35.944071	         1041.574216	          117.251095	           -0.223437	            0.005754	           -0.719267	            0.135939	           -3.939205	           -0.443440
            3.749500	          -22.940694	         1108.823777	         -124.551715	           -0.234679	            0.006177	           -0.394627	           -0.130199	            6.293098	           -0.706890	          -36.070202	         1037.523921	          116.767418	           -0.223270	            0.005755	           -0.719510	            0.132866	           -3.821774	           -0.430119
            3.750000	          -23.030060	         1103.593665	         -124.023648	           -0.234379	            0.006176	           -0.394518	           -0.128361	            6.151002	           -0.691260	          -35.957397	         1032.185335	          116.372899	           -0.223007	            0.005757	           -0.719630	            0.132070	           -3.791180	           -0.427433
            3.750500	          -23.072981	         1099.443719	         -123.170047	           -0.234120	            0.006176	           -0.394412	           -0.127704	            6.085199	           -0.681721	          -35.521145	         1028.135808	          116.311329	           -0.222726	            0.005758	           -0.719661	            0.126701	           -3.667268	           -0.414872
            3.751000	          -23.162751	         1093.313231	         -122.875105	           -0.233775	            0.006176	           -0.394391	           -0.126743	            5.982448	           -0.672354	          -35.174109	         1022.798235	          115.869789	           -0.222511	            0.005759	           -0.719691	            0.125770	           -3.657152	           -0.414308
            3.751500	          -23.252200	         1089.164699	         -122.296532	           -0.233507	            0.006175	           -0.394141	           -0.127034	            5.950434	           -0.668143	          -35.068487	         1019.484253	          115.764066	           -0.222232	            0.005761	           -0.719914	            0.121789	           -3.540560	           -0.402036
            3.752000	          -23.157870	         1084.654777	         -121.582389	           -0.233179	            0.006175	           -0.394050	           -0.126278	            5.914540	           -0.662979	          -34.910799	         1014.698030	          115.418418	           -0.221969	            0.005762	           -0.720045	            0.119332	           -3.468438	           -0.394523
            3.752500	          -22.972291	         1079.424914	         -121.100842	           -0.232970	            0.006174	           -0.393922	           -0.127495	            5.990754	           -0.672104	          -34.659497	         1009.912815	          114.885033	           -0.221782	            0.005762	           -0.719938	            0.115732	           -3.372226	           -0.383616
            3.753000	          -23.015133	         1074.193876	         -120.297729	           -0.232705	            0.006174	           -0.393812	           -0.125587	            5.861567	           -0.656430	          -34.221293	         1005.311139	          114.727636	           -0.221497	            0.005764	           -0.720112	            0.112361	           -3.300815	           -0.376694
            3.753500	          -22.737251	         1069.323200	         -119.539736	           -0.232485	            0.006173	           -0.393709	           -0.123748	            5.819824	           -0.650599	          -33.878929	         1001.262779	          114.243760	           -0.221404	            0.005764	           -0.720143	            0.109604	           -3.239246	           -0.369597
            3.754000	          -22.916888	         1064.451107	         -118.413757	           -0.232245	            0.006173	           -0.393644	           -0.121579	            5.647127	           -0.628209	          -33.723153	          997.028370	          114.087811	           -0.221029	            0.005766	           -0.720286	            0.105705	           -3.125168	           -0.357606
            3.754500	          -22.823077	         1059.041249	         -117.978606	           -0.231980	            0.006173	           -0.393516	           -0.119157	            5.529151	           -0.615955	          -33.285014	          992.427196	          113.789637	           -0.220863	            0.005767	           -0.720310	            0.104666	           -3.120723	           -0.357816
            3.755000	          -22.728468	         1053.630015	         -117.222475	           -0.231752	            0.006173	           -0.393519	           -0.119967	            5.561351	           -0.618733	          -33.078567	          987.089451	          113.254286	           -0.220609	            0.005768	           -0.720310	            0.099174	           -2.959422	           -0.339551
            3.755500	          -22.451236	         1048.580345	         -116.740383	           -0.231509	            0.006172	           -0.393468	           -0.120687	            5.636663	           -0.627540	          -32.549280	          983.224341	          113.193348	           -0.220419	            0.005769	           -0.720518	            0.095052	           -2.871255	           -0.330552
            3.756000	          -22.310507	         1043.529122	         -115.845248	           -0.231216	            0.006172	           -0.393380	           -0.118859	            5.559376	           -0.617163	          -32.626611	          978.622311	          112.613824	           -0.220128	            0.005771	           -0.720718	            0.091579	           -2.746867	           -0.316092
            3.756500	          -22.124929	         1038.299260	         -115.363716	           -0.230969	            0.006171	           -0.393132	           -0.116936	            5.487683	           -0.609727	          -31.954864	          974.205895	          112.363127	           -0.219960	            0.005772	           -0.720787	            0.088988	           -2.712964	           -0.312908
            3.757000	          -21.709259	         1033.248043	         -114.515117	           -0.230549	            0.006171	           -0.393169	           -0.113919	            5.421969	           -0.600918	          -32.029434	          968.866465	          112.015623	           -0.219651	            0.005773	           -0.720807	            0.086195	           -2.607327	           -0.301446
            3.757500	          -21.705734	         1027.655635	         -113.530241	           -0.230372	            0.006171	           -0.392981	           -0.110710	            5.241555	           -0.579061	          -31.448002	          963.528566	          111.902474	           -0.219396	            0.005774	           -0.720693	            0.081578	           -2.499457	           -0.290282
            3.758000	          -21.427984	         1023.506144	         -112.769155	           -0.230202	            0.006170	           -0.392809	           -0.109851	            5.247047	           -0.578116	          -31.014598	          960.217108	          111.421186	           -0.219293	            0.005775	           -0.721008	            0.080858	           -2.503389	           -0.290487
            3.758500	          -21.287288	         1018.635095	         -111.873248	           -0.229925	            0.006170	           -0.392729	           -0.109472	            5.238410	           -0.575317	          -30.763834	          955.615090	          111.170012	           -0.218909	            0.005777	           -0.721079	            0.076619	           -2.380026	           -0.276877
            3.759000	          -20.780193	         1013.764708	         -111.115823	           -0.229703	            0.006169	           -0.392596	           -0.107250	            5.232182	           -0.573484	          -30.232117	          951.015137	          110.590229	           -0.218694	            0.005778	           -0.721188	            0.073500	           -2.312085	           -0.268864
            3.759500	          -20.640554	         1009.075603	         -110.631842	           -0.229391	            0.006168	           -0.392450	           -0.105263	            5.146106	           -0.564203	          -29.933841	          946.229208	          110.338393	           -0.218395	            0.005779	           -0.721178	            0.070830	           -2.238974	           -0.261083
            3.760000	          -20.133622	         1003.845139	         -109.967667	           -0.229135	            0.006168	           -0.392329	           -0.101337	            5.052568	           -0.553491	          -29.683762	          941.811438	          110.040955	           -0.218274	            0.005780	           -0.721469	            0.069272	           -2.197878	           -0.256799
            3.760500	          -19.808739	          998.251761	         -108.800180	           -0.228865	            0.006168	           -0.392311	           -0.098436	            4.960621	           -0.540662	          -29.476650	          936.289490	          109.504947	           -0.217927	            0.005781	           -0.721313	            0.064632	           -2.052955	           -0.240106
            3.761000	          -19.531606	          993.743102	         -108.315767	           -0.228669	            0.006167	           -0.392116	           -0.096290	            4.899113	           -0.533992	          -29.181738	          932.424661	          109.162540	           -0.217611	            0.005783	           -0.721434	            0.062662	           -2.002205	           -0.234406
            3.761500	          -19.528440	          988.871905	         -107.419519	           -0.228400	            0.006167	           -0.391990	           -0.093548	            4.737061	           -0.514579	          -28.882817	          927.454576	          108.863111	           -0.217457	            0.005784	           -0.721563	            0.060707	           -1.949346	           -0.228811
            3.762000	          -18.699871	          982.739160	         -106.530729	           -0.228079	            0.006168	           -0.392172	           -0.091283	            4.797226	           -0.520028	          -28.494951	          923.774835	          108.333594	           -0.217309	            0.005785	           -0.721770	            0.056971	           -1.846937	           -0.216595
